<svg xmlns="http://www.w3.org/2000/svg" width="11.339" height="10.844" viewBox="0 0 11.339 10.844">
    <defs>
        <style>
            .cls-1{fill:#e8ca4d}
        </style>
    </defs>
    <path id="icon_follow_on" d="M168.581 293.435l1.278 2.591a.612.612 0 0 0 .46.334l2.86.416a.61.61 0 0 1 .339 1.041l-2.07 2.017a.611.611 0 0 0-.175.541l.488 2.848a.611.611 0 0 1-.886.644l-2.558-1.345a.613.613 0 0 0-.568 0l-2.558 1.345a.611.611 0 0 1-.886-.644l.489-2.848a.611.611 0 0 0-.176-.541l-2.069-2.017a.61.61 0 0 1 .338-1.041l2.86-.416a.612.612 0 0 0 .46-.334l1.279-2.591a.61.61 0 0 1 1.095 0z" class="cls-1" transform="translate(-162.364 -293.094)"/>
</svg>
