<svg xmlns="http://www.w3.org/2000/svg" width="9.588" height="9.169" viewBox="0 0 9.588 9.169">
    <defs>
        <style>
            .cls-1{fill:#b5b5b6}
        </style>
    </defs>
    <path id="icon_follow_off" d="M342.225 270.683l1.081 2.191a.516.516 0 0 0 .389.282l2.418.352a.515.515 0 0 1 .286.88l-1.75 1.706a.516.516 0 0 0-.148.457l.413 2.408a.517.517 0 0 1-.749.545L342 278.367a.518.518 0 0 0-.481 0l-2.162 1.137a.517.517 0 0 1-.75-.545l.413-2.408a.513.513 0 0 0-.148-.457l-1.75-1.706a.516.516 0 0 1 .286-.88l2.419-.352a.514.514 0 0 0 .388-.282l1.082-2.191a.516.516 0 0 1 .928 0z" class="cls-1" transform="translate(-336.968 -270.395)"/>
</svg>
